<?xml version="1.0" encoding="utf-8"?>
<!-- Generator: Adobe Illustrator 22.1.0, SVG Export Plug-In . SVG Version: 6.00 Build 0)  -->
<svg version="1.1" id="blue" xmlns="http://www.w3.org/2000/svg" xmlns:xlink="http://www.w3.org/1999/xlink" x="0px" y="0px"
	 width="32px" height="32px" viewBox="0 0 32 32" style="enable-background:new 0 0 32 32;" xml:space="preserve">
<style type="text/css">
	.st0{fill:#FFFFFF;}
</style>
<g>
	<path class="st0" d="M26,8.6c-1.4-1.8-2.6-2.3-2.6-2.3l-1.7,1.2c-0.8-0.4-1.6-0.8-2.5-0.9l-0.7-2.2c0,0-0.3-0.1-1-0.1
		c-0.6,0-1.4,0.1-2.5,0.4c-1.9,0.6-3.1,1.6-3.1,1.6l0.6,2.3c-0.7,0.6-1.2,1.3-1.6,2.1l-2.1-0.1c0,0-0.8,1.1-1,3.3
		c-0.2,2,0.3,3.5,0.3,3.5l2.6,0.3c0.3,0.7,0.8,1.3,1.3,1.9l-0.8,2.2c0,0,0.8,1,2.9,1.9c1.4,0.6,2.7,0.6,3.2,0.6c0.1,0,0.2,0,0.2,0
		l0.9-2.1c0.5,0,1-0.1,1.5-0.3c0.5-0.1,1-0.3,1.4-0.6l1.9,1.3c0,0,1.4-0.8,2.6-2.4c1.4-1.8,1.5-3.2,1.5-3.2l-1.8-1.5
		c0.1-0.7,0.2-1.5,0.1-2.3l2-1.7C27.5,11.8,27.2,10.2,26,8.6z M24.6,12.3l-0.6,0.5l0.1,0.8c0.1,0.6,0.1,1.2,0,1.8l-0.2,0.9l0.7,0.6
		l1.1,0.8c-0.2,0.4-0.5,1-1,1.7c-0.5,0.6-1,1.1-1.4,1.4l-1.1-0.7l-0.7-0.5L20.6,20c-0.4,0.2-0.8,0.3-1.1,0.5
		c-0.4,0.1-0.8,0.2-1.2,0.2l-0.9,0.1L17,21.6l-0.5,1.2c-0.5-0.1-1.2-0.2-1.9-0.5c-0.8-0.3-1.4-0.7-1.7-0.9l0.5-1.3l0.3-0.8L13,18.6
		c-0.4-0.5-0.8-1-1-1.5l-0.3-0.7l-0.8-0.1L9.2,16c-0.1-0.5-0.1-1.2-0.1-2c0.1-0.9,0.3-1.5,0.4-1.9l1.1,0.1l1,0.1l0.5-0.9
		c0.3-0.6,0.8-1.2,1.3-1.7l0.7-0.6l-0.2-0.9l-0.3-1.3c0.4-0.3,1.1-0.6,1.8-0.8c0.8-0.2,1.5-0.3,2-0.3l0.4,1.3L18,7.9l0.9,0.2
		c0.7,0.1,1.4,0.4,2,0.7l0.8,0.5l0.8-0.6l0.9-0.6c0.4,0.3,0.9,0.7,1.4,1.4c0.5,0.6,0.8,1.2,1,1.7L24.6,12.3z"/>
	<path class="st0" d="M17.7,10c-0.3,0-0.6,0-0.9,0.1c-0.7,0.2-1.4,0.5-1.9,1l1.2,0.9c0.3-0.2,0.6-0.4,1-0.5c0.2,0,0.4-0.1,0.6-0.1
		c1.3,0,2.4,0.9,2.7,2.2c0.2,0.7,0,1.5-0.4,2.1s-1,1.1-1.7,1.2c-0.2,0-0.4,0.1-0.6,0.1c-1.3,0-2.4-0.9-2.7-2.2
		c-0.1-0.5-0.1-1,0.1-1.4l-1.2-1c-0.4,0.8-0.5,1.8-0.3,2.7c0.4,2,2.2,3.4,4.2,3.4c0.3,0,0.6,0,0.9-0.1c2.3-0.5,3.8-2.8,3.2-5.1
		C21.4,11.4,19.7,10,17.7,10z"/>
	<path class="st0" d="M32,14.3c0-2.7-0.8-5.3-2.1-7.4c1.1-0.6,1.8-1.7,1.8-3.1c0-1.9-1.6-3.5-3.5-3.5c-1.3,0-2.5,0.8-3.1,1.8
		C23,0.8,20.5,0,17.7,0C12.4,0,7.8,3,5.3,7.3C4.8,7,4.1,6.8,3.5,6.8C2.9,6.8,2.4,7,1.8,7.2c-1.7,0.9-2.3,3-1.4,4.7
		c0.6,1.2,1.8,1.8,3.1,1.8c0,0.2,0,0.3,0,0.5c0,7.9,6.4,14.3,14.3,14.3c0.2,0,0.4,0,0.5,0c0,1.2,0.6,2.4,1.8,3
		c0.5,0.3,1.1,0.4,1.7,0.4c1.2,0,2.4-0.6,3.1-1.8c0.6-1.1,0.6-2.4-0.1-3.5C29.1,24.2,32,19.6,32,14.3z M28.2,1.8c1.1,0,2,0.9,2,2
		c0,1.1-0.9,2-2,2c-1.1,0-2-0.9-2-2C26.2,2.7,27.1,1.8,28.2,1.8z M1.7,11.3c-0.3-0.5-0.3-1-0.2-1.5c0.2-0.5,0.5-0.9,1-1.2
		c0.3-0.2,0.6-0.2,1-0.2c0.7,0,1.4,0.4,1.8,1c0.5,1,0.2,2.2-0.8,2.7c-0.3,0.2-0.6,0.2-1,0.2C2.8,12.3,2.1,11.9,1.7,11.3z M23.5,29.4
		c-0.4,0.6-1,1-1.8,1c-0.3,0-0.7-0.1-1-0.3c-1-0.5-1.3-1.8-0.8-2.7c0.4-0.6,1-1,1.8-1c0.3,0,0.7,0.1,1,0.3
		C23.7,27.3,24,28.5,23.5,29.4z M23.7,25.6c-0.1,0-0.1-0.1-0.2-0.1c-0.5-0.3-1.1-0.4-1.7-0.4c-1.2,0-2.4,0.6-3.1,1.8
		c0,0.1-0.1,0.2-0.1,0.2c-0.3,0-0.6,0-0.8,0C10.7,27,5,21.3,5,14.3c0-0.3,0-0.5,0-0.8c0,0,0.1,0,0.1-0.1c1.7-0.9,2.3-3.1,1.4-4.7
		c0-0.1-0.1-0.2-0.1-0.2c2.1-4.1,6.4-6.9,11.3-6.9c2.6,0,5,0.8,7,2.1c0,0,0,0.1,0,0.1c0,1.9,1.6,3.5,3.5,3.5c0,0,0.1,0,0.1,0
		c1.3,2,2.1,4.4,2.1,7C30.5,19.2,27.7,23.4,23.7,25.6z"/>
</g>
</svg>
