<?xml version="1.0" encoding="UTF-8" standalone="no"?>
<!-- Generator: Adobe Illustrator 18.0.0, SVG Export Plug-In . SVG Version: 6.00 Build 0)  -->

<svg
   xmlns:dc="http://purl.org/dc/elements/1.1/"
   xmlns:cc="http://creativecommons.org/ns#"
   xmlns:rdf="http://www.w3.org/1999/02/22-rdf-syntax-ns#"
   xmlns:svg="http://www.w3.org/2000/svg"
   xmlns="http://www.w3.org/2000/svg"
   xmlns:sodipodi="http://sodipodi.sourceforge.net/DTD/sodipodi-0.dtd"
   xmlns:inkscape="http://www.inkscape.org/namespaces/inkscape"
   version="1.1"
   id="Layer_1"
   x="0px"
   y="0px"
   viewBox="0 0 151.29998 151.80001"
   enable-background="new 0 0 266.6 265.4"
   xml:space="preserve"
   inkscape:version="0.91 r13725"
   sodipodi:docname="icee_icon.svg"
   width="151.29999"
   height="151.8"><metadata
     id="metadata67"><rdf:RDF><cc:Work
         rdf:about=""><dc:format>image/svg+xml</dc:format><dc:type
           rdf:resource="http://purl.org/dc/dcmitype/StillImage" /><dc:title></dc:title></cc:Work></rdf:RDF></metadata><defs
     id="defs65" /><sodipodi:namedview
     pagecolor="#ffffff"
     bordercolor="#666666"
     borderopacity="1"
     objecttolerance="10"
     gridtolerance="10"
     guidetolerance="10"
     inkscape:pageopacity="0"
     inkscape:pageshadow="2"
     inkscape:window-width="1362"
     inkscape:window-height="998"
     id="namedview63"
     showgrid="false"
     fit-margin-top="0"
     fit-margin-left="0"
     fit-margin-right="0"
     fit-margin-bottom="0"
     inkscape:zoom="0.88922383"
     inkscape:cx="61.642797"
     inkscape:cy="75.800006"
     inkscape:window-x="3108"
     inkscape:window-y="175"
     inkscape:window-maximized="0"
     inkscape:current-layer="Layer_1" /><g
     id="g3"
     transform="translate(-57.600003,-56.700002)"
     style="fill:#ffffff"><circle
       cx="133.89999"
       cy="68.400002"
       r="11.7"
       id="circle5"
       style="fill:#ffffff" /><circle
       cx="133.89999"
       cy="196.8"
       r="11.7"
       id="circle7"
       style="fill:#ffffff" /><circle
       cx="133.89999"
       cy="132.60001"
       r="11.7"
       id="circle9"
       style="fill:#ffffff" /></g><g
     id="g11"
     transform="translate(-57.600003,-56.700002)"
     style="fill:#ffffff"><circle
       cx="197.2"
       cy="101"
       r="11.7"
       id="circle13"
       style="fill:#ffffff" /><circle
       cx="197.2"
       cy="163.5"
       r="11.7"
       id="circle15"
       style="fill:#ffffff" /><circle
       cx="69.300003"
       cy="163.5"
       r="11.7"
       id="circle17"
       style="fill:#ffffff" /><circle
       cx="69.300003"
       cy="101"
       r="11.7"
       id="circle19"
       style="fill:#ffffff" /><circle
       cx="133.89999"
       cy="132.60001"
       r="11.7"
       id="circle21"
       style="fill:#ffffff" /></g><rect
     x="74.299988"
     y="11.7"
     width="4"
     height="128.3"
     id="rect23"
     style="fill:#ffffff" /><rect
     x="99.122368"
     y="-106.01344"
     transform="matrix(0.43871324,0.89862712,-0.89862712,0.43871324,0,0)"
     width="3.9998794"
     height="142.29572"
     id="rect25"
     style="fill:#ffffff" /><rect
     x="29.973572"
     y="32.739883"
     transform="matrix(0.89862712,0.43871324,-0.43871324,0.89862712,0,0)"
     width="142.29572"
     height="3.9998794"
     id="rect27"
     style="fill:#ffffff" /><rect
     x="52.0835"
     y="-59.095058"
     transform="matrix(0.55419241,0.8323886,-0.8323886,0.55419241,0,0)"
     width="114.20156"
     height="4.0000548"
     id="rect29"
     style="fill:#ffffff" /><rect
     x="66.969116"
     y="-31.761868"
     transform="matrix(0.8323886,0.55419241,-0.55419241,0.8323886,0,0)"
     width="4.0000548"
     height="114.20156"
     id="rect31"
     style="fill:#ffffff" /><rect
     x="138.81387"
     y="-40.437687"
     transform="matrix(0.8323886,0.55419241,-0.55419241,0.8323886,0,0)"
     width="4.0000548"
     height="114.20156"
     id="rect33"
     style="fill:#ffffff" /><rect
     x="43.436634"
     y="12.852436"
     transform="matrix(0.55419241,0.8323886,-0.8323886,0.55419241,0,0)"
     width="114.20156"
     height="4.0000548"
     id="rect35"
     style="fill:#ffffff" /><g
     id="g37"
     transform="translate(-57.600003,-56.700002)"
     style="fill:#ffffff"><polygon
       points="71.1,97.9 72.9,101.5 71.3,102.3 71.3,104 67.3,104 67.3,99.8 "
       id="polygon39"
       style="fill:#ffffff" /><path
       d="m 71.3,154.2 -4,0 0,-6.3 4,0 0,6.3 z m 0,-12.5 -4,0 0,-6.3 4,0 0,6.3 z m 0,-12.6 -4,0 0,-6.3 4,0 0,6.3 z m 0,-12.5 -4,0 0,-6.3 4,0 0,6.3 z"
       id="path41"
       inkscape:connector-curvature="0"
       style="fill:#ffffff" /><polygon
       points="71.3,160.5 71.3,162.3 72.9,163.1 71.1,166.6 67.3,164.7 67.3,160.5 "
       id="polygon43"
       style="fill:#ffffff" /><path
       d="m 125,194.4 -5.4,-2.8 1.8,-3.6 5.4,2.8 -1.8,3.6 z m -10.8,-5.6 -5.4,-2.8 1.8,-3.6 5.4,2.8 -1.8,3.6 z m -10.8,-5.5 -5.4,-2.8 1.8,-3.6 5.4,2.8 -1.8,3.6 z m -10.8,-5.6 -5.4,-2.8 1.8,-3.6 5.4,2.8 -1.8,3.6 z m -10.7,-5.5 -5.4,-2.8 1.8,-3.6 5.4,2.8 -1.8,3.6 z"
       id="path45"
       inkscape:connector-curvature="0"
       style="fill:#ffffff" /><polygon
       points="133.9,194.5 135.7,193.6 137.5,197.1 133.9,199 130.4,197.2 132.2,193.6 "
       id="polygon47"
       style="fill:#ffffff" /><path
       d="m 142.8,194.4 -1.9,-3.5 5.3,-2.8 1.9,3.5 -5.3,2.8 z m 10.5,-5.6 -1.9,-3.5 5.3,-2.8 1.9,3.5 -5.3,2.8 z m 10.6,-5.5 -1.9,-3.5 5.3,-2.8 1.9,3.5 -5.3,2.8 z m 10.5,-5.6 -1.9,-3.5 5.3,-2.8 1.9,3.5 -5.3,2.8 z m 10.6,-5.5 -1.9,-3.5 5.3,-2.8 1.9,3.5 -5.3,2.8 z"
       id="path49"
       inkscape:connector-curvature="0"
       style="fill:#ffffff" /><polygon
       points="195.2,160.5 199.2,160.5 199.2,164.7 195.5,166.6 193.6,163.1 195.2,162.3 "
       id="polygon51"
       style="fill:#ffffff" /><path
       d="m 199.2,154.2 -4,0 0,-6.3 4,0 0,6.3 z m 0,-12.5 -4,0 0,-6.3 4,0 0,6.3 z m 0,-12.6 -4,0 0,-6.3 4,0 0,6.3 z m 0,-12.5 -4,0 0,-6.3 4,0 0,6.3 z"
       id="path53"
       inkscape:connector-curvature="0"
       style="fill:#ffffff" /><polygon
       points="193.6,101.4 195.5,97.9 199.2,99.8 199.2,104 195.2,104 195.2,102.3 "
       id="polygon55"
       style="fill:#ffffff" /><path
       d="m 188.4,98.7 -5.3,-2.7 1.8,-3.6 5.3,2.7 -1.8,3.6 z m -10.6,-5.4 -5.3,-2.7 1.8,-3.6 5.3,2.7 -1.8,3.6 z m -10.5,-5.4 -5.3,-2.7 1.8,-3.6 5.3,2.7 -1.8,3.6 z m -10.5,-5.5 -5.3,-2.7 1.8,-3.6 5.3,2.7 -1.8,3.6 z m -10.6,-5.4 -5.3,-2.7 1.8,-3.6 5.3,2.7 -1.8,3.6 z"
       id="path57"
       inkscape:connector-curvature="0"
       style="fill:#ffffff" /><polygon
       points="130.4,68 133.9,66.2 137.5,68 135.7,71.6 133.9,70.7 132.2,71.6 "
       id="polygon59"
       style="fill:#ffffff" /><path
       d="m 78.3,98.8 -1.8,-3.6 5.4,-2.7 1.8,3.6 -5.4,2.7 z m 10.8,-5.5 -1.8,-3.6 5.4,-2.7 1.8,3.6 -5.4,2.7 z m 10.7,-5.4 -1.8,-3.6 5.4,-2.7 1.8,3.6 -5.4,2.7 z m 10.8,-5.5 -1.8,-3.6 5.4,-2.7 1.8,3.6 -5.4,2.7 z m 10.8,-5.4 -1.8,-3.6 5.4,-2.7 1.8,3.6 -5.4,2.7 z"
       id="path61"
       inkscape:connector-curvature="0"
       style="fill:#ffffff" /></g></svg>